<svg width="64" height="35" viewBox="0 0 64 35" fill="none" xmlns="http://www.w3.org/2000/svg">
<g clip-path="url(#clip0_135_1814)">
<rect y="2" width="64" height="32" rx="16" fill="#FFD0DF"/>
</g>
<path d="M42.6674 15.8511H42.044V13.6887C42.044 12.2003 40.8256 10.9927 39.3239 10.9927H32.9204V8.77415C33.8554 8.40906 34.5071 7.5104 34.5071 6.47132C34.5071 5.09525 33.4021 4 32.0137 4C30.6253 4 29.5203 5.09525 29.5203 6.47132C29.5203 7.5104 30.172 8.40906 31.107 8.77415V10.9927H24.7035C23.2018 10.9927 21.9834 12.2003 21.9834 13.6887V15.8511H21.36C20.6234 15.8511 20 16.4689 20 17.1991V20.3725C20 21.1027 20.6234 21.7205 21.36 21.7205H21.9834V29.3311C21.9834 30.5105 23.4001 31.1003 24.2501 30.2859L27.8486 26.8036H39.2956C40.7973 26.8036 42.0157 25.596 42.0157 24.1076V21.7486H42.639C43.3757 21.7486 43.9991 21.1308 43.9991 20.4006V17.2272C44.0274 16.4689 43.4041 15.8511 42.6674 15.8511ZM26.9702 16.2443C26.9702 15.3175 27.7069 14.5874 28.6419 14.5874C29.577 14.5874 30.3137 15.3175 30.3137 16.2443C30.3137 17.171 29.577 17.9012 28.6419 17.9012C27.7352 17.9293 26.9702 17.171 26.9702 16.2443ZM32.0137 23.4617C30.172 23.4617 28.6419 21.9733 28.6419 20.1198C28.6419 19.867 28.8686 19.6423 29.1236 19.6423H34.9038C35.1588 19.6423 35.3855 19.867 35.3855 20.1198C35.3855 21.9733 33.8554 23.4617 32.0137 23.4617ZM35.3855 17.9293C34.4504 17.9293 33.7138 17.1991 33.7138 16.2724C33.7138 15.3456 34.4504 14.6155 35.3855 14.6155C36.3205 14.6155 37.0572 15.3456 37.0572 16.2724C37.0572 17.171 36.2922 17.9293 35.3855 17.9293Z" fill="#B74F6F"/>
<defs>
<clipPath id="clip0_135_1814">
<rect y="2" width="64" height="32" rx="16" fill="white"/>
</clipPath>
</defs>
</svg>
