<svg width="60" height="32" viewBox="0 0 60 32" fill="none" xmlns="http://www.w3.org/2000/svg">
<rect width="60" height="32" fill="white"/>
<path d="M40.3469 14.8511H39.7599V12.6887C39.7599 11.2003 38.6125 9.99272 37.1983 9.99272H31.1678V7.77415C32.0483 7.40906 32.662 6.5104 32.662 5.47132C32.662 4.09525 31.6214 3 30.3139 3C29.0064 3 27.9657 4.09525 27.9657 5.47132C27.9657 6.5104 28.5794 7.40906 29.46 7.77415V9.99272H23.4295C22.0153 9.99272 20.8679 11.2003 20.8679 12.6887V14.8511H20.2808C19.587 14.8511 19 15.4689 19 16.1991V19.3725C19 20.1027 19.587 20.7205 20.2808 20.7205H20.8679V28.3311C20.8679 29.5105 22.202 30.1003 23.0026 29.2859L26.3914 25.8036H37.1716C38.5858 25.8036 39.7332 24.596 39.7332 23.1076V20.7486H40.3203C41.014 20.7486 41.6011 20.1308 41.6011 19.4006V16.2272C41.6278 15.4689 41.0407 14.8511 40.3469 14.8511ZM25.5642 15.2443C25.5642 14.3175 26.258 13.5874 27.1385 13.5874C28.0191 13.5874 28.7129 14.3175 28.7129 15.2443C28.7129 16.171 28.0191 16.9012 27.1385 16.9012C26.2846 16.9293 25.5642 16.171 25.5642 15.2443ZM30.3139 22.4617C28.5794 22.4617 27.1385 20.9733 27.1385 19.1198C27.1385 18.867 27.352 18.6423 27.5921 18.6423H33.0356C33.2758 18.6423 33.4892 18.867 33.4892 19.1198C33.4892 20.9733 32.0483 22.4617 30.3139 22.4617ZM33.4892 16.9293C32.6087 16.9293 31.9149 16.1991 31.9149 15.2724C31.9149 14.3456 32.6087 13.6155 33.4892 13.6155C34.3698 13.6155 35.0636 14.3456 35.0636 15.2724C35.0636 16.171 34.3431 16.9293 33.4892 16.9293Z" fill="#00517A"/>
</svg>
