<svg width="67" height="154" viewBox="0 0 67 154" fill="none" xmlns="http://www.w3.org/2000/svg">
<path d="M29 0H36V154H29V0Z" fill="#B74F6F"/>
<path d="M4.44425 46.1346C6.10211 51.4229 15.1154 47.8283 22.0119 45.6663C28.9084 43.5043 33.1552 37.4646 31.4973 32.1763C28 31 13.4043 27.7702 6.50782 29.9323C-0.388677 32.0943 2.78639 40.8463 4.44425 46.1346Z" fill="#B74F6F"/>
<path d="M66.9951 37.8358C66.9951 43.7485 56.027 42.9657 47.8342 42.9657C39.6415 42.9657 33 38.1725 33 32.2598C36.5 31 51.0762 22 59.269 22C67.4617 22 66.9951 31.9231 66.9951 37.8358Z" fill="#B74F6F"/>
<path d="M23.0121 84.412C25.2563 84.809 28.1751 66.5761 30.5772 52.9962C32.9793 39.4163 33.1073 28.0858 30.8631 27.6888C28.6189 27.2919 21.6689 56.9624 19.2668 70.5423C16.8646 84.1222 20.7678 84.0151 23.0121 84.412Z" fill="#B74F6F"/>
<path d="M49.2138 66.1725C46.9968 67.3024 42.6442 58.0365 39.1738 51.2271C35.7033 44.4177 34.6872 37.9816 36.9042 36.8517C39.1212 35.7218 48.4083 49.9153 51.8787 56.7247C55.3491 63.5341 51.4308 65.0426 49.2138 66.1725Z" fill="#B74F6F"/>
</svg>
