<svg width="60" height="32" viewBox="0 0 60 32" fill="none" xmlns="http://www.w3.org/2000/svg">
<rect width="60" height="32" fill="white"/>
<path d="M40.1893 13.75V9.25C40.1893 8.00125 39.2358 7 38.0704 7H21.1189C19.9535 7 19.0106 8.00125 19.0106 9.25V13.75C20.176 13.75 21.1189 14.7625 21.1189 16C21.1189 17.2375 20.176 18.25 19 18.25V22.75C19 23.9875 19.9535 25 21.1189 25H38.0704C39.2358 25 40.1893 23.9875 40.1893 22.75V18.25C39.0239 18.25 38.0704 17.2375 38.0704 16C38.0704 14.7625 39.0239 13.75 40.1893 13.75ZM30.6541 22.1875H28.5352V19.9375H30.6541V22.1875ZM30.6541 17.125H28.5352V14.875H30.6541V17.125ZM30.6541 12.0625H28.5352V9.8125H30.6541V12.0625Z" fill="#00517A"/>
</svg>
